<svg width="320" height="220" viewBox="0 0 320 220" xmlns="http://www.w3.org/2000/svg">
  <rect width="320" height="220" rx="26" fill="#020617"/>
  <rect x="48" y="34" width="224" height="152" rx="18" fill="#0B1220" stroke="#1D4ED8" stroke-width="3"/>
  <rect x="48" y="34" width="224" height="38" rx="18" fill="#1D4ED8"/>
  <circle cx="106" cy="52" r="7" fill="#DBEAFE"/>
  <circle cx="214" cy="52" r="7" fill="#DBEAFE"/>
  <rect x="75" y="90" width="28" height="24" rx="6" fill="#1E3A8A"/>
  <rect x="110" y="90" width="28" height="24" rx="6" fill="#1E3A8A"/>
  <rect x="145" y="90" width="28" height="24" rx="6" fill="#2563EB"/>
  <rect x="180" y="90" width="28" height="24" rx="6" fill="#1E3A8A"/>
  <rect x="215" y="90" width="28" height="24" rx="6" fill="#1E3A8A"/>
  <rect x="110" y="120" width="28" height="24" rx="6" fill="#1E3A8A"/>
  <rect x="145" y="120" width="28" height="24" rx="6" fill="#60A5FA"/>
  <path d="M150 133L158 141L172 124" stroke="#0F172A" stroke-width="4" stroke-linecap="round" stroke-linejoin="round"/>
  <text x="160" y="176" text-anchor="middle" fill="#93C5FD" font-size="18" font-family="Arial, sans-serif" font-weight="700">AGENDAR</text>
</svg>
